<svg width="20" height="20" viewBox="0 0 20 20" fill="none" xmlns="http://www.w3.org/2000/svg">
<g clip-path="url(#clip0_1226_8522)">
<path d="M10 20.0004C4.48545 20.0004 0 15.7764 0 10.5866C0 5.39685 4.48545 1.17285 10 1.17285C15.5146 1.17285 20 5.39536 20 10.5866C20 15.7779 15.5146 20.0004 10 20.0004ZM10 2.96966C5.53841 2.96966 1.9087 6.3866 1.9087 10.5866C1.9087 14.7867 5.53841 18.2036 10 18.2036C14.4616 18.2036 18.0913 14.7867 18.0913 10.5866C18.0913 6.3866 14.4616 2.96966 10 2.96966Z" fill="white"/>
<path d="M10.3179 12.0293H9.68164V19.0968H10.3179V12.0293Z" fill="white"/>
<path d="M10.3179 2.07129H9.68164V9.14024H10.3179V2.07129Z" fill="white"/>
<path d="M8.47633 10.2842H0.956055V10.8831H8.47633V10.2842Z" fill="white"/>
<path d="M19.0446 10.8831H17.613C17.4381 10.8831 17.2949 10.7484 17.2949 10.5836C17.2949 10.4189 17.4381 10.2842 17.613 10.2842H19.0446C19.2195 10.2842 19.3627 10.4189 19.3627 10.5836C19.3627 10.7484 19.2195 10.8831 19.0446 10.8831Z" fill="white"/>
<path d="M16.065 10.8831H14.5173C14.3424 10.8831 14.1992 10.7484 14.1992 10.5836C14.1992 10.4189 14.3424 10.2842 14.5173 10.2842H16.065C16.2399 10.2842 16.3831 10.4189 16.3831 10.5836C16.3831 10.7484 16.2399 10.8831 16.065 10.8831Z" fill="white"/>
<path d="M12.9684 10.8831H11.5369C11.3619 10.8831 11.2188 10.7484 11.2188 10.5836C11.2188 10.4189 11.3619 10.2842 11.5369 10.2842H12.9684C13.1434 10.2842 13.2865 10.4189 13.2865 10.5836C13.2865 10.7484 13.1434 10.8831 12.9684 10.8831Z" fill="white"/>
<path d="M8.69063 11.3941L3.38086 16.3926L3.83074 16.8161L9.14051 11.8176L8.69063 11.3941Z" fill="white"/>
<path d="M16.1681 4.35257L10.8516 9.35742L11.3014 9.78093L16.618 4.77608L16.1681 4.35257Z" fill="white"/>
<path d="M8.91585 9.86254C8.83473 9.86254 8.75361 9.83259 8.69157 9.7742L7.67996 8.82189C7.5559 8.7051 7.5559 8.51493 7.67996 8.39814C7.80403 8.28135 8.00603 8.28135 8.1301 8.39814L9.14171 9.35045C9.26578 9.46724 9.26578 9.65741 9.14171 9.7742C9.07968 9.83259 8.99856 9.86254 8.91744 9.86254H8.91585Z" fill="white"/>
<path d="M6.80776 7.8794C6.72664 7.8794 6.64553 7.84945 6.58349 7.79106L5.48758 6.75939C5.36351 6.6426 5.36351 6.45243 5.48758 6.33564C5.61165 6.21885 5.81365 6.21885 5.93772 6.33564L7.03363 7.36731C7.15769 7.4841 7.15769 7.67426 7.03363 7.79106C6.9716 7.84945 6.89048 7.8794 6.80936 7.8794H6.80776Z" fill="white"/>
<path d="M4.618 5.81567C4.53688 5.81567 4.45576 5.78572 4.39372 5.72732L3.38211 4.77501C3.25805 4.65822 3.25805 4.46806 3.38211 4.35127C3.50618 4.23447 3.70818 4.23447 3.83225 4.35127L4.84386 5.30358C4.96792 5.42037 4.96792 5.61053 4.84386 5.72732C4.78183 5.78572 4.70071 5.81567 4.61959 5.81567H4.618Z" fill="white"/>
<path d="M11.3112 11.3948L10.8613 11.8184L16.17 16.8158L16.6199 16.3923L11.3112 11.3948Z" fill="white"/>
<path d="M10.0002 5.07749L13.14 0.419256C12.1427 0.14674 11.0897 0 10.0002 0C8.91061 0 7.85606 0.145242 6.86035 0.417758L10.0002 5.07749Z" fill="white"/>
<path d="M10.0015 12.3286C8.98031 12.3286 8.14844 11.5455 8.14844 10.5842C8.14844 9.62295 8.98031 8.83984 10.0015 8.83984C11.0226 8.83984 11.8545 9.62295 11.8545 10.5842C11.8545 11.5455 11.0226 12.3286 10.0015 12.3286ZM10.0015 9.43878C9.33024 9.43878 8.78467 9.95237 8.78467 10.5842C8.78467 11.2161 9.33024 11.7297 10.0015 11.7297C10.6727 11.7297 11.2183 11.2161 11.2183 10.5842C11.2183 9.95237 10.6727 9.43878 10.0015 9.43878Z" fill="white"/>
</g>
<defs>
<clipPath id="clip0_1226_8522">
<rect width="20" height="20" fill="white"/>
</clipPath>
</defs>
</svg>
